<?xml version="1.0" encoding="UTF-8"?> <!-- Generator: Adobe Illustrator 24.0.3, SVG Export Plug-In . SVG Version: 6.00 Build 0) --> <svg xmlns="http://www.w3.org/2000/svg" xmlns:xlink="http://www.w3.org/1999/xlink" version="1.1" id="Layer_1" x="0px" y="0px" viewBox="0 0 524.09 60.88" style="enable-background:new 0 0 524.09 60.88;" xml:space="preserve"> <style type="text/css"> .st0{fill:#C32026;} .st1{display:none;} .st2{display:inline;} </style> <path class="st0" d="M53.03,7.33c-1.63-0.09-3.09,0-4.3,0.34c-1.89,0.26-3.35,1.38-4.46,3.52c-0.43,1.29-0.77,2.84-0.94,4.73 c-0.17,1.29-0.69,2.23-1.63,3.01c-2.23,0.26-4.03-0.26-5.32-1.46c-1.97-1.8-4.72-3.27-8.33-4.38c-3.35-1.12-6.7-1.8-9.88-2.23 c-5.41-0.77-10.48-1.2-15.38-1.29c0.34,1.03,0.95,2.06,1.89,3.09c0.86,1.03,1.97,2.06,3.35,3.01c1.81,1.29,3.7,2.84,5.59,4.64 c0.43,0.43,0.95,0.94,1.46,1.55c0.26,0.26,0.6,0.6,0.94,0.95c0.43,0.43,0.94,0.86,1.55,1.37c0.69,0.6,1.8,1.38,3.27,2.32 c1.46,0.77,3.26,1.81,5.5,2.92c0.34,0.26,0.69,0.52,1.03,0.77c1.37,1.03,2.06,2.15,2.15,3.27c-2.66,4.56-5.5,9.03-8.42,13.59 c-0.6,0.94-1.2,1.89-1.89,2.84c-1.8,2.84-3.78,5.59-5.84,8.42l1.63-0.6c2.58-3.44,5.58-6.36,9.02-8.68c2.66-0.6,5.24-1.55,7.82-2.84 l6.09-3.43c2.83-2.06,5.23-4.13,7.29-6.19c1.8-1.98,3.26-4.05,4.55-6.02c1.63-3.18,2.75-6.28,3.52-9.29 c1.12-4.04,2.66-7.9,4.81-11.51c4.04-1.8,7.05-3.26,8.94-4.21c1.72-0.77,2.66-1.2,2.92-1.29c0.6-0.95-0.52-0.86-3.44,0.17 c-2.23,0.6-4.38,1.29-6.36,2.06c-0.86,0.26-1.72,0.6-2.49,0.86c-0.43,0-0.86,0-1.38,0.08C55.69,7.5,54.66,7.42,53.03,7.33 L53.03,7.33z"></path> <g class="st1"> <path class="st2" d="M159.34,44.14h4.22V17.69h-4.22V14h24.53v7.87h-4.18v-3.94h-11.33v10.9h12v3.94h-12v11.18h12.14v-4.08h4.18 v8.02h-25.35V44.14z"></path> <path class="st2" d="M191.31,44.29h3.79V28.25c0-0.72-0.38-1.06-1.06-1.06h-2.98v-3.6h5.47c2.11,0,3.07,0.91,3.07,2.69v1.25 c0,0.77-0.14,1.39-0.14,1.39h0.1c0.48-1.3,3.31-5.9,9.46-5.9c5.57,0,8.06,3.12,8.06,9.31v11.95h3.84v3.6h-8.5v-14.5 c0-3.41-0.67-6.1-4.56-6.1c-4.9,0-8.11,4.46-8.11,9.31v7.68h3.84v3.6h-12.29V44.29z"></path> <path class="st2" d="M236.43,54.03c4.22,0,7.68-1.92,7.68-6.91V45.2c0-0.77,0.14-1.54,0.14-1.54h-0.1c-1.44,2.4-3.74,3.94-7.3,3.94 c-6.72,0-10.85-5.42-10.85-12.43c0-6.96,3.89-12.14,10.66-12.14c3.17,0,6.53,1.2,7.87,3.98h0.1c0,0-0.1-0.34-0.1-0.96 c0-1.54,0.77-2.45,2.78-2.45h5.18v3.6h-2.69c-0.62,0-1.06,0.34-1.06,0.96v18.72c0,8.02-6.1,11.09-12.24,11.09 c-2.93,0-5.9-0.82-8.3-2.02l1.54-3.55C229.76,52.4,232.78,54.03,236.43,54.03z M244.21,35.22c0-6.34-3.07-8.16-6.86-8.16 c-4.18,0-6.58,3.07-6.58,8.02c0,5.04,2.64,8.5,7.01,8.5C241.13,43.57,244.21,41.55,244.21,35.22z"></path> <path class="st2" d="M258.17,44.29h3.79V27.2h-4.03v-3.6h8.69v20.69h3.84v3.6h-12.29V44.29z M261.87,14h4.9v4.75h-4.9V14z"></path> <path class="st2" d="M276.17,44.29h3.79V28.25c0-0.72-0.38-1.06-1.06-1.06h-2.98v-3.6h5.47c2.11,0,3.07,0.91,3.07,2.69v1.25 c0,0.77-0.14,1.39-0.14,1.39h0.1c0.48-1.3,3.31-5.9,9.46-5.9c5.57,0,8.06,3.12,8.06,9.31v11.95h3.84v3.6h-8.5v-14.5 c0-3.41-0.67-6.1-4.56-6.1c-4.9,0-8.11,4.46-8.11,9.31v7.68h3.84v3.6h-12.29V44.29z"></path> <path class="st2" d="M322.92,23.02c6.91,0,10.51,5.09,10.51,11.38c0,0.62-0.14,1.78-0.14,1.78h-17.76c0.29,5.38,4.08,8.26,8.4,8.26 c4.22,0,7.25-2.74,7.25-2.74l1.92,3.41c0,0-3.65,3.36-9.46,3.36c-7.63,0-12.87-5.52-12.87-12.72 C310.78,28.02,316.01,23.02,322.92,23.02z M328.64,33.2c-0.14-4.27-2.74-6.48-5.81-6.48c-3.55,0-6.43,2.4-7.1,6.48H328.64z"></path> <path class="st2" d="M351.44,23.02c6.91,0,10.51,5.09,10.51,11.38c0,0.62-0.14,1.78-0.14,1.78h-17.76c0.29,5.38,4.08,8.26,8.4,8.26 c4.22,0,7.25-2.74,7.25-2.74l1.92,3.41c0,0-3.65,3.36-9.46,3.36c-7.63,0-12.87-5.52-12.87-12.72 C339.29,28.02,344.52,23.02,351.44,23.02z M357.15,33.2c-0.14-4.27-2.74-6.48-5.81-6.48c-3.55,0-6.43,2.4-7.1,6.48H357.15z"></path> <path class="st2" d="M368.24,44.29h3.65V28.25c0-0.72-0.38-1.06-1.06-1.06h-3.02v-3.6h5.47c2.11,0,3.12,0.86,3.12,2.83v1.54 c0,0.96-0.1,1.68-0.1,1.68h0.1c1.1-3.55,3.94-6.34,7.68-6.34c0.62,0,1.2,0.1,1.2,0.1v4.61c0,0-0.58-0.14-1.34-0.14 c-5.18,0-7.39,5.23-7.39,9.98v6.43h3.6v3.6h-11.91V44.29z"></path> <path class="st2" d="M390.31,44.29h3.79V27.2h-4.03v-3.6h8.69v20.69h3.84v3.6h-12.29V44.29z M394.01,14h4.9v4.75h-4.9V14z"></path> <path class="st2" d="M408.31,44.29h3.79V28.25c0-0.72-0.38-1.06-1.06-1.06h-2.98v-3.6h5.47c2.11,0,3.07,0.91,3.07,2.69v1.25 c0,0.77-0.14,1.39-0.14,1.39h0.1c0.48-1.3,3.31-5.9,9.46-5.9c5.57,0,8.06,3.12,8.06,9.31v11.95h3.84v3.6h-8.5v-14.5 c0-3.41-0.67-6.1-4.56-6.1c-4.9,0-8.11,4.46-8.11,9.31v7.68h3.84v3.6h-12.29V44.29z"></path> <path class="st2" d="M453.44,54.03c4.22,0,7.68-1.92,7.68-6.91V45.2c0-0.77,0.14-1.54,0.14-1.54h-0.1c-1.44,2.4-3.74,3.94-7.3,3.94 c-6.72,0-10.85-5.42-10.85-12.43c0-6.96,3.89-12.14,10.66-12.14c3.17,0,6.53,1.2,7.87,3.98h0.1c0,0-0.1-0.34-0.1-0.96 c0-1.54,0.77-2.45,2.78-2.45h5.18v3.6h-2.69c-0.62,0-1.06,0.34-1.06,0.96v18.72c0,8.02-6.1,11.09-12.24,11.09 c-2.93,0-5.9-0.82-8.3-2.02l1.54-3.55C446.76,52.4,449.79,54.03,453.44,54.03z M461.21,35.22c0-6.34-3.07-8.16-6.86-8.16 c-4.18,0-6.58,3.07-6.58,8.02c0,5.04,2.64,8.5,7.01,8.5C458.14,43.57,461.21,41.55,461.21,35.22z"></path> </g> <g> <g> <path class="st0" d="M76.14,45.3c0-12.1,16.85-13.59,16.85-21.94c0-3.5-2.5-5.71-6.1-5.71c-4.46,0-7.01,4.51-7.01,4.51l-3.36-2.3 c0,0,3.07-6.43,10.75-6.43c6.19,0,10.71,3.89,10.71,9.74c0,10.9-16.56,12.67-16.66,20.79h13.83v-4.51h4.18v8.45H76.38 C76.23,46.98,76.14,46.11,76.14,45.3z"></path> <path class="st0" d="M105.61,44.14h4.22l2.16-26.45h-4.32V14h9.6l8.69,20.64c0.53,1.39,0.77,2.45,0.77,2.45h0.1 c0,0,0.24-1.06,0.77-2.45L136.28,14h9.6v3.7h-4.32l2.16,26.45h4.22v3.74h-13.06v-3.74h4.08l-1.54-20.26 c-0.05-1.06,0.14-2.78,0.14-2.78h-0.14c0,0-0.38,1.63-0.77,2.59l-7.78,17.81h-4.22l-7.78-17.81c-0.38-0.96-0.77-2.59-0.77-2.59 h-0.14c0,0,0.19,1.73,0.14,2.78l-1.54,20.26h4.08v3.74h-13.06V44.14z"></path> </g> <g> <path d="M170.61,44.13h4.23V17.62h-4.23v-3.71h24.59v7.89h-4.19v-3.95h-11.36v10.92h12.03v3.95h-12.03v11.21h12.18v-4.09h4.19 v8.04h-25.41V44.13z"></path> <path d="M201.02,44.13h4.23V17.62h-4.23v-3.71h9l16.7,24.35c0.58,0.96,1.16,2.45,1.16,2.45h0.14c0,0-0.24-1.68-0.24-2.74V17.62 h-4.33v-3.71h13.43v3.71h-4.28v30.27h-4.72l-16.7-24.35c-0.63-0.96-1.16-2.45-1.16-2.45h-0.14c0,0,0.24,1.68,0.19,2.74v20.31h4.38 v3.75h-13.43V44.13z"></path> <path d="M258.72,13.33c5.97,0,13.04,2.41,13.04,6.69v4.19h-4.43v-2.5c0-2.84-4.48-4.24-8.47-4.24c-7.94,0-12.95,5.39-12.95,13.19 c0,7.84,5.1,13.62,13.09,13.62c3.03,0,9.1-0.91,9.1-4.24v-4.48h-6.64v-3.75h11.07v9.53c0,5.25-8.76,7.12-13.86,7.12 c-10.44,0-17.76-7.6-17.76-17.66C240.91,20.75,248.13,13.33,258.72,13.33z"></path> <path d="M277.96,44.13h4.23V17.62h-4.23v-3.71h13.33v3.71h-4.28v26.52h4.28v3.75h-13.33V44.13z"></path> <path d="M296.34,44.13h4.24V17.62h-4.24v-3.71h9l16.7,24.35c0.58,0.96,1.15,2.45,1.15,2.45h0.14c0,0-0.24-1.68-0.24-2.74V17.62 h-4.33v-3.71h13.43v3.71h-4.28v30.27h-4.72l-16.7-24.35c-0.63-0.96-1.16-2.45-1.16-2.45h-0.14c0,0,0.24,1.68,0.19,2.74v20.31h4.38 v3.75h-13.43V44.13z"></path> <path d="M336.67,44.13h4.24V17.62h-4.24v-3.71h24.59v7.89h-4.19v-3.95h-11.36v10.92h12.03v3.95h-12.03v11.21h12.18v-4.09h4.19 v8.04h-25.41V44.13z"></path> <path d="M367.08,44.13h4.24V17.62h-4.24v-3.71h24.59v7.89h-4.19v-3.95h-11.36v10.92h12.03v3.95h-12.03v11.21h12.18v-4.09h4.19 v8.04h-25.41V44.13z"></path> <path d="M397.49,44.13h4.24V17.62h-4.24v-3.71h14.73c2.41,0,4.38,0.1,6.26,0.72c3.56,1.2,5.92,4.19,5.92,8.81 c0,4.91-2.7,8.42-7.03,9.53v0.1c0,0,0.87,0.48,1.44,1.59l4.81,8.37c0.53,0.91,1.15,1.11,2.36,1.11h1.01v3.75h-2.89 c-2.89,0-3.56-0.53-4.72-2.55l-5.25-9.29c-0.87-1.44-1.49-1.88-3.56-1.88h-4.04v9.96h4.19v3.75h-13.23V44.13z M413.37,30.23 c3.71,0,6.16-2.41,6.16-6.4c0-2.65-1.06-4.48-3.18-5.34c-1.11-0.43-2.55-0.63-4.19-0.63h-5.63v12.37H413.37z"></path> <path d="M431.03,44.13h4.24V17.62h-4.24v-3.71h13.33v3.71h-4.28v26.52h4.28v3.75h-13.33V44.13z"></path> <path d="M449.41,44.13h4.24V17.62h-4.24v-3.71h9l16.7,24.35c0.58,0.96,1.16,2.45,1.16,2.45h0.14c0,0-0.24-1.68-0.24-2.74V17.62 h-4.33v-3.71h13.43v3.71h-4.28v30.27h-4.72l-16.7-24.35c-0.62-0.96-1.16-2.45-1.16-2.45h-0.14c0,0,0.24,1.68,0.19,2.74v20.31h4.38 v3.75h-13.43V44.13z"></path> <path d="M507.11,13.33c5.97,0,13.04,2.41,13.04,6.69v4.19h-4.43v-2.5c0-2.84-4.48-4.24-8.47-4.24c-7.94,0-12.95,5.39-12.95,13.19 c0,7.84,5.1,13.62,13.09,13.62c3.03,0,9.1-0.91,9.1-4.24v-4.48h-6.64v-3.75h11.07v9.53c0,5.25-8.76,7.12-13.86,7.12 c-10.44,0-17.76-7.6-17.76-17.66C489.31,20.75,496.53,13.33,507.11,13.33z"></path> </g> </g> <polygon style="fill:none;" points="250.05,-154.01 253.39,-154.01 253.39,-154.01 250.05,-154.01 "></polygon> </svg> 