<svg xmlns="http://www.w3.org/2000/svg" viewBox="0 0 1269.1 285.5" width="180" height="40">
  <path fill="#1a1a1a" d="M0,283.5v-27.7h58.9c48.8,0,78.4-28.9,78.4-78.8V0h28v184.8c0,57.6-37.4,98.6-103.2,98.6H0ZM0,238.1v-27.7h56.1c23.9,0,35.8-13.3,35.8-37.6V0h28v179.9c0,33.1-23.5,58.2-58.5,58.2H0h0Z"/>
  <path fill="#1a1a1a" d="M286.3,283.5c-65.8,0-103.2-41-103.2-98.6V0h28v177c0,49.9,29.6,78.8,78.4,78.8h58.9v27.7h-62.1ZM287,238.1c-35,0-58.5-25.1-58.5-58.2V0h28v172.8c0,24.3,11.9,37.6,35.8,37.6h56.1v27.7h-61.4Z"/>
  <path fill="#1a1a1a" d="M412.5,283.5V0h28v255.8h130.7v27.7h-158.7Z"/>
  <path fill="#1a1a1a" d="M630.5,283.5V0h158.7v27.7h-130.7v97.5h121.5v27.7h-121.5v130.6h-28Z"/>
  <path fill="#1a1a1a" d="M858.2,283.5V0h28v283.5h-28Z"/>
  <path fill="#1a1a1a" d="M953.2,283.5V0h28l153.5,236.5V0h27.7v283.5h-28L980.9,47v236.5h-27.7Z"/>
  <path fill="#1a1a1a" d="M1240.8,283.5V27.7h-72.6V0h173.4v27.7h-72.9v255.8h-27.9Z"/>
  <path fill="#E30613" d="M0,285.5v-2h62.1c65.8,0,103.2-41,103.2-98.6V0h2v184.8c0,58.4-38,100.7-105.2,100.7H0Z"/>
  <path fill="#E30613" d="M286.3,285.5H0v-2h286.3c67.2,0,105.2-42.2,105.2-100.7V0h2v182.8c0,57.6-37.4,102.7-107.2,102.7Z"/>
</svg>
